<?xml version="1.0" encoding="UTF-8"?>
<svg xmlns="http://www.w3.org/2000/svg" xmlns:xlink="http://www.w3.org/1999/xlink" version="1.1" viewBox="0 0 1080 1080">
  <!-- Generator: Adobe Illustrator 30.3.0, SVG Export Plug-In . SVG Version: 2.1.3 Build 182)  -->
  <defs>
    <style>
      .st0 {
        fill: none;
      }

      .st1 {
        fill: #314a61;
      }

      .st2 {
        fill: #606060;
        mix-blend-mode: overlay;
      }

      .st3 {
        isolation: isolate;
      }

      .st4 {
        fill: #fff;
      }

      .st5 {
        fill: #f2e7c3;
        opacity: .4;
      }

      .st6 {
        fill: url(#Degradado_sin_nombre_42);
      }

      .st7 {
        fill: url(#Degradado_sin_nombre_18);
      }

      .st8 {
        clip-path: url(#clippath);
      }
    </style>
    <clipPath id="clippath">
      <rect class="st0" y="2.44" width="1080" height="1080" rx="109.08" ry="109.08"/>
    </clipPath>
    <linearGradient id="Degradado_sin_nombre_18" data-name="Degradado sin nombre 18" x1="540" y1="2.44" x2="540" y2="1082.44" gradientUnits="userSpaceOnUse">
      <stop offset="0" stop-color="#ff4000"/>
      <stop offset="1" stop-color="#f70"/>
    </linearGradient>
    <radialGradient id="Degradado_sin_nombre_42" data-name="Degradado sin nombre 42" cx="-1926.95" cy="626.41" fx="-1926.95" fy="626.41" r="267.82" gradientTransform="translate(4442.8 -726.27) scale(2.03)" gradientUnits="userSpaceOnUse">
      <stop offset="0" stop-color="#ffb902"/>
      <stop offset=".91" stop-color="#ffb902" stop-opacity="0"/>
    </radialGradient>
  </defs>
  <g class="st3">
    <g id="Capa_1">
      <g class="st8">
        <g>
          <g>
            <g>
              <rect class="st7" x="0" y="2.44" width="1080" height="1080" rx="109.08" ry="109.08"/>
              <circle class="st6" cx="540" cy="542.44" r="542.44"/>
            </g>
            <g>
              <path class="st2" d="M913.82,788.48c37.87,79.97,25.33,178.31-37.02,293.23,19.5,6.84,38.81,14.24,57.95,22.3,20.96,8.88,41.52,18.46,61.72,28.68,49.15-69.5,134.75-217.76,86.6-314.52-23.18-46.57-74.46-77.93-156.8-95.94-23.54-5.14-47.91-8.73-72.64-10.77,22.32,18.86,44.59,44.08,60.2,77.02"/>
              <path class="st2" d="M791.97,1053.83c50.82-98.19,62.02-182.69,31.78-247.93-26.77-57.79-77.87-85.11-98.89-94.27-6.78.58-13.6,1.19-20.38,2.01-63.06,7.48-100.41,21.66-117.26,29.54v281.58c69.59,2.56,138,12.26,204.74,29.08"/>
              <path class="st2" d="M492.82,1025.54v-282.4c-16.7-7.79-54.08-21.99-117.26-29.51-6.78-.82-13.59-1.43-20.41-2.01-21.02,9.16-72.09,36.44-98.89,94.26-30.63,66.19-18.74,152.15,33.95,252.1,66-17.82,133.68-28.68,202.61-32.46"/>
              <path class="st2" d="M164.5,1101.71c13.53-5.72,27.16-11.07,40.85-16.15-64.18-116.59-77.44-216.24-39.12-297.09,15.61-32.94,37.84-58.13,60.2-77.02-24.76,2.04-49.09,5.63-72.67,10.77-82.34,18.01-133.66,49.4-156.8,96.03-49.52,99.62,42.25,253.32,90.55,320.05,25.06-13.23,50.71-25.46,76.99-36.59"/>
              <polygon class="st2" points="649.62 545.58 540.03 435.98 430.43 545.58 503.37 618.52 503.37 695.11 540.03 711.44 576.68 695.11 576.68 618.52 649.62 545.58"/>
            </g>
            <g>
              <path class="st4" d="M343.4,448.17c94.68,0,139.17,48.11,139.17,48.11l-51.74,65.71s-36.73-29.49-85.36-29.49-97.26,38.29-97.26,102.95c0,72.95,49.15,109.68,101.92,109.68,48.63,0,76.57-26.9,76.57-26.9v-13.97c0-7.24-4.14-11.38-11.38-11.38h-22.25v-77.6h78.12c26.39,0,37.77,11.38,37.77,37.77v171.25h-77.6v-10.35c0-7.76.52-15.52.52-15.52h-1.03s-36.73,32.08-99.85,32.08c-93.13,0-179.01-68.29-179.01-194.53,0-106.06,81.23-187.8,191.42-187.8Z"/>
              <path class="st4" d="M734.53,448.17c111.75,0,193.49,82.78,193.49,188.84s-81.74,193.49-193.49,193.49-193.49-84.85-193.49-193.49,81.74-188.84,193.49-188.84ZM734.53,745.14c53.81,0,97.26-46.56,97.26-108.13s-43.46-103.47-97.26-103.47-97.26,44.49-97.26,103.47,43.46,108.13,97.26,108.13Z"/>
            </g>
          </g>
          <g>
            <g>
              <path class="st4" d="M203.86,283.83c27.04,0,40.25,13.99,40.25,13.99l-11.5,14.61s-11.5-9.79-28.28-9.79c-19.11,0-35.43,15.07-35.43,37.45,0,24.09,16.47,38.85,36.21,38.85,17.56,0,27.97-11.5,27.97-11.5v-8.24c0-2.33-1.24-3.42-3.42-3.42h-6.68v-17.25h17.87c7.46,0,10.57,3.11,10.57,10.41v47.09h-17.41v-5.28c0-2.33.16-4.66.16-4.66h-.31s-11.81,11.81-32.48,11.81c-28.91,0-53.61-22.07-53.61-57.65,0-31.7,24.09-56.41,56.1-56.41Z"/>
              <path class="st4" d="M407.29,346.31h2.49v-.62c0-11.34-4.51-15.54-14.61-15.54-3.57,0-10.57.93-10.57,5.28v4.2h-18.34v-8.39c0-14.76,20.82-16.32,29.06-16.32,26.42,0,34.19,13.83,34.19,31.55v29.53c0,2.18,1.24,3.42,3.42,3.42h6.22v16.63h-17.72c-7.3,0-10.1-4.04-10.1-8.7,0-2.02.16-3.42.16-3.42h-.31s-6.06,13.99-23.93,13.99c-14.14,0-27.04-8.86-27.04-24.71,0-24.86,34.19-26.88,47.09-26.88ZM392.06,382.52c10.57,0,18.03-11.19,18.03-20.82v-1.86h-3.42c-10.26,0-26.57,1.4-26.57,12.43,0,5.28,3.89,10.26,11.97,10.26Z"/>
              <path class="st4" d="M585.83,346.31h2.49v-.62c0-11.34-4.51-15.54-14.61-15.54-3.57,0-10.57.93-10.57,5.28v4.2h-18.34v-8.39c0-14.76,20.82-16.32,29.06-16.32,26.42,0,34.19,13.83,34.19,31.55v29.53c0,2.18,1.24,3.42,3.42,3.42h6.22v16.63h-17.72c-7.3,0-10.1-4.04-10.1-8.7,0-2.02.16-3.42.16-3.42h-.31s-6.06,13.99-23.93,13.99c-14.14,0-27.04-8.86-27.04-24.71,0-24.86,34.19-26.88,47.09-26.88ZM570.6,382.52c10.57,0,18.03-11.19,18.03-20.82v-1.86h-3.42c-10.26,0-26.57,1.4-26.57,12.43,0,5.28,3.89,10.26,11.97,10.26Z"/>
              <path class="st4" d="M897.12,314.92c22.69,0,35.12,16.63,35.12,37.61,0,2.33-.47,7.3-.47,7.3h-54.7c1.55,13.99,11.81,21.29,23.78,21.29,12.74,0,22.22-8.86,22.22-8.86h0c5.18,8.6,1.23,19.96-8.3,23.15-4.37,1.46-9.52,2.5-15.32,2.5-26.26,0-42.58-18.96-42.58-41.49,0-24.4,16.47-41.49,40.25-41.49ZM912.04,346.15c-.31-9.48-6.84-16.01-14.92-16.01-10.1,0-17.25,6.06-19.43,16.01h34.34Z"/>
              <path class="st4" d="M526.53,379.4c-2.19,0-3.43-1.24-3.43-3.41v-41.34h.02v-40.95c0-4.42-3.58-8-8-8h-12v38.7c-.78-1.19-6.75-9.47-22.75-9.47-20.98,0-36.05,16.31-36.05,41.48s13.83,41.5,35.27,41.5c18.19,0,24.71-12.9,24.71-12.9h.32v2.95c0,4.67,2.63,8.08,9.78,8.08h18.19v-16.63h-6.06ZM483.94,381.27c-11.66,0-19.59-9.79-19.59-24.86s9.01-24.54,19.89-24.54c13.2,0,19.59,12.12,19.59,24.39,0,17.57-9.64,25.02-19.89,25.02Z"/>
              <path class="st4" d="M353.88,379.4v16.63h-18.18c-6.84,0-10.42-3.26-10.42-8.86v-2.17c0-1.87.15-3.58.15-3.58h-.31c-3.73,8.25-13.68,16.48-27.36,16.48-16.94,0-27.34-8.55-27.34-30.14v-50.91h10.94c6.04.5,8.65,3.81,8.65,10.34v36.52c0,9.62,2.48,16.16,12.27,16.16,14.29,0,22.22-12.59,22.22-26.73v-36.37h19.74v59.22c0,2.17,1.24,3.41,3.43,3.41h6.21Z"/>
              <path class="st4" d="M757.65,379.4v16.63h-18.18c-6.84,0-10.42-3.26-10.42-8.86v-2.17c0-1.87.15-3.58.15-3.58h-.31c-3.73,8.25-13.68,16.48-27.36,16.48-16.94,0-27.34-8.55-27.34-30.14v-50.91h10.94c6.04.5,8.65,3.81,8.65,10.34v36.52c0,9.62,2.48,16.16,12.27,16.16,14.29,0,22.22-12.59,22.22-26.73v-36.37h19.74v59.22c0,2.17,1.24,3.41,3.43,3.41h6.21Z"/>
              <path class="st4" d="M815.14,314.92c-18.48,0-25.17,12.58-25.17,12.58h-.31v-3.11c0-2.28-.72-4.25-2.45-5.63t-.02,0c-.24-.2-.51-.37-.78-.54-.14-.08-.29-.17-.44-.24-.75-.38-1.62-.67-2.63-.89-.05-.02-.08-.02-.11-.02-.29-.06-.57-.11-.87-.14-.09-.02-.17-.03-.26-.03-.29-.05-.6-.08-.92-.09-.18-.02-.37-.02-.57-.02h-8.83v100.97h19.57v-23.45c0-4.04-.31-6.82-.31-6.82h.31s6.99,10.4,22.69,10.4c20.82,0,36.37-16.31,36.37-41.5s-13.83-41.48-35.28-41.48ZM810.49,381.27c-13.05,0-19.59-12.12-19.59-24.39,0-17.57,9.64-25.02,19.89-25.02,11.66,0,19.74,9.78,19.74,24.86s-9.17,24.54-20.04,24.54Z"/>
              <path class="st5" d="M787.43,317.09c.99.18,1.87.49,2.63.89-.75-.38-1.62-.67-2.63-.89Z"/>
              <path class="st5" d="M792.61,320.19c.1.15.19.29.28.45-.09-.15-.18-.3-.28-.45Z"/>
              <path class="st5" d="M792.19,319.64c-.27-.31-.55-.62-.89-.88.34.27.63.57.89.88Z"/>
              <path class="st5" d="M792.61,320.19c-.13-.19-.26-.37-.41-.55.15.18.28.36.41.55Z"/>
              <path class="st5" d="M793.77,323.96v3.53h-.02v-3.11c0-1.39-.27-2.66-.87-3.75.56.99.88,2.11.88,3.32Z"/>
              <path class="st4" d="M659.56,379.4v16.63h-18.65c-7.45,0-10.56-3.11-10.56-10.56v-99.78h9.17c7.15,0,10.44,3.14,10.56,10.13.02.15.02.29.02.44v79.72c0,2.17,1.24,3.41,3.41,3.41h6.06Z"/>
            </g>
            <path class="st1" d="M234.35,256.29c3.13,6.61,2.1,14.74-3.06,24.24,1.61.56,3.21,1.18,4.79,1.84,1.73.73,3.43,1.52,5.1,2.37,4.06-5.74,11.14-18,7.16-26-1.92-3.85-6.16-6.44-12.96-7.93-1.95-.43-3.96-.72-6.01-.89,1.85,1.56,3.69,3.64,4.98,6.37Z"/>
            <path class="st1" d="M224.28,278.22c4.2-8.11,5.13-15.1,2.63-20.49-2.21-4.78-6.44-7.03-8.17-7.79-.56.05-1.12.1-1.69.17-5.21.62-8.3,1.79-9.69,2.44v23.27c5.75.21,11.41,1.01,16.92,2.4Z"/>
            <path class="st1" d="M199.55,275.89v-23.34c-1.38-.64-4.47-1.82-9.69-2.44-.56-.07-1.12-.12-1.69-.17-1.74.76-5.96,3.01-8.17,7.79-2.53,5.47-1.55,12.57,2.8,20.84,5.46-1.47,11.05-2.37,16.75-2.68Z"/>
            <path class="st1" d="M172.42,282.18c1.12-.47,2.24-.92,3.38-1.34-5.3-9.64-6.4-17.87-3.23-24.55,1.29-2.72,3.13-4.81,4.98-6.37-2.05.17-4.06.47-6.01.89-6.81,1.49-11.05,4.08-12.96,7.93-4.09,8.24,3.49,20.94,7.49,26.46,2.07-1.09,4.19-2.11,6.36-3.03Z"/>
            <polygon class="st1" points="212.51 236.22 203.46 227.16 194.4 236.22 200.43 242.24 200.43 248.57 203.46 249.93 206.48 248.57 206.48 242.24 212.51 236.22"/>
          </g>
        </g>
      </g>
    </g>
  </g>
</svg>